<?xml version="1.0" encoding="UTF-8"?>
<svg version="1.1" xmlns="http://www.w3.org/2000/svg" width="512" height="512">
<path d="M0 0 C1.89730985 1.36535381 3.7741232 2.75983381 5.625 4.1875 C6.40230469 4.78175781 7.17960937 5.37601563 7.98046875 5.98828125 C19.39526591 15.42316669 27.56748133 28.33296832 34.625 41.1875 C34.9662793 41.80818359 35.30755859 42.42886719 35.65917969 43.06835938 C54.625 78.09614234 54.625 78.09614234 54.625 93.1875 C55.44589111 93.04127197 56.26678223 92.89504395 57.11254883 92.74438477 C60.21136204 92.19466215 63.31087458 91.64910753 66.41088867 91.10620117 C68.39101402 90.75817047 70.37032347 90.40550775 72.34960938 90.05273438 C85.0412983 87.83570517 97.30376797 86.94862894 110.1875 86.9375 C110.89365448 86.93682526 111.59980896 86.93615051 112.32736206 86.93545532 C137.53047149 86.97361321 163.32416629 91.65450588 181.89453125 110.171875 C193.6619739 122.68990741 198.02823689 138.71677185 197.8359375 155.54296875 C195.79791383 190.75548888 173.90334043 221.24231544 150.625 246.1875 C152.59769976 249.69792535 154.70859239 252.48352306 157.5 255.375 C179.49178375 279.54101197 198.15374469 311.24291642 197.84375 344.68359375 C196.75604762 362.10625503 190.05160677 376.33670708 177.5 388.4375 C168.10361807 396.29510161 156.48659774 401.45325642 144.625 404.1875 C143.99303711 404.33558105 143.36107422 404.48366211 142.70996094 404.63623047 C114.23828031 410.99750784 82.79091369 407.64505094 54.625 401.1875 C54.35945313 402.47785156 54.09390625 403.76820313 53.8203125 405.09765625 C48.00859863 431.15876547 35.22264 456.40725472 18.625 477.1875 C18.16609375 477.78820312 17.7071875 478.38890625 17.234375 479.0078125 C7.95201446 490.82735159 -6.50037953 500.65578677 -21.375 503.1875 C-40.07332588 505.23672874 -55.29698712 501.81786304 -70.375 490.1875 C-71.15230469 489.59324219 -71.92960938 488.99898438 -72.73046875 488.38671875 C-96.89398256 468.41439849 -111.03793764 433.64779248 -119.375 404.1875 C-119.375 403.1975 -119.375 402.2075 -119.375 401.1875 C-120.56875244 401.40684204 -120.56875244 401.40684204 -121.78662109 401.63061523 C-125.44033925 402.29953488 -129.09514758 402.96230698 -132.75 403.625 C-134.62751953 403.97014648 -134.62751953 403.97014648 -136.54296875 404.32226562 C-149.07418703 406.58575793 -161.16376678 407.42729323 -173.875 407.4375 C-174.63100494 407.43817474 -175.38700989 407.43884949 -176.16592407 407.43954468 C-203.01475993 407.40149351 -227.06262438 402.20506119 -247.30859375 383.390625 C-258.09457955 372.14821664 -262.27963661 356.98977398 -262.75 341.75 C-261.73329853 307.05506218 -241.3313456 277.52714189 -219.375 252.1875 C-218.82158936 251.67380859 -218.26817871 251.16011719 -217.69799805 250.63085938 C-216.09889649 249.21950988 -216.09889649 249.21950988 -216.421875 246.79296875 C-217.60637707 243.55500612 -219.18899777 241.93993127 -221.625 239.5 C-241.36824798 218.74538915 -260.62815295 188.472877 -262.375 159.1875 C-262.43945312 158.18460938 -262.50390625 157.18171875 -262.5703125 156.1484375 C-263.21948937 136.97608049 -256.57813302 121.25813226 -243.609375 107.28515625 C-234.4073817 98.46324529 -221.61930613 93.07097141 -209.375 90.1875 C-207.56708984 89.74083984 -207.56708984 89.74083984 -205.72265625 89.28515625 C-177.92541787 83.19630234 -146.77026902 86.99722287 -119.375 93.1875 C-119.26615479 92.64585205 -119.15730957 92.1042041 -119.04516602 91.54614258 C-113.37780528 64.59655623 -100.51135648 38.6317021 -83.375 17.1875 C-82.79105469 16.44886719 -82.20710937 15.71023437 -81.60546875 14.94921875 C-74.42140658 6.28460044 -65.52234727 -0.04225886 -55.375 -4.8125 C-54.09302734 -5.43511719 -54.09302734 -5.43511719 -52.78515625 -6.0703125 C-35.67477007 -13.09121702 -15.20851701 -9.68683181 0 0 Z M-47.375 42.1875 C-62.63100054 59.19836516 -72.35919224 83.16496907 -77.375 105.1875 C-76.4684668 105.52483154 -75.56193359 105.86216309 -74.62792969 106.2097168 C-71.20518008 107.48407113 -67.78358778 108.7615092 -64.36230469 110.03979492 C-62.89255759 110.58846415 -61.42251421 111.1363405 -59.95214844 111.68334961 C-58.52409559 112.21472944 -57.09648008 112.74728611 -55.66931152 113.28103638 C-54.25385645 113.81001051 -52.83726387 114.33595072 -51.41955566 114.8588562 C-47.12650542 116.46006588 -43.02971062 118.2965671 -38.890625 120.26953125 C-35.17384338 121.81743195 -32.91290713 122.58325256 -29.03515625 121.34375 C-27.47252258 120.64533477 -25.92022172 119.92363697 -24.375 119.1875 C-22.0663704 118.30919835 -19.75199433 117.44592556 -17.43359375 116.59375 C-16.17698742 116.1178531 -14.92113564 115.63995942 -13.66601562 115.16015625 C-13.03219971 114.91797363 -12.39838379 114.67579102 -11.74536133 114.42626953 C-11.10751709 114.18247559 -10.46967285 113.93868164 -9.8125 113.6875 C-8.52415534 113.19643929 -7.23574425 112.70555283 -5.94726562 112.21484375 C-3.50091908 111.28312674 -1.05482008 110.35077109 1.39111328 109.41796875 C5.13103092 107.99495917 8.87616181 106.58681413 12.625 105.1875 C7.92811957 84.29616727 -1.16800091 61.43507077 -15.375 45.1875 C-16.014375 44.28 -16.65375 43.3725 -17.3125 42.4375 C-21.14080535 38.26116689 -25.47358003 35.76471678 -30.875 34.125 C-37.57922127 34.24471824 -42.42008408 37.91628565 -47.375 42.1875 Z M-215.375 141.1875 C-219.17124974 146.50224963 -219.07001319 151.90813665 -218.375 158.1875 C-214.57489911 177.66935054 -201.79758653 194.5723451 -189.4375 209.5625 C-188.97682129 210.1287207 -188.51614258 210.69494141 -188.04150391 211.27832031 C-186.88707349 212.6417535 -185.63721105 213.92318876 -184.375 215.1875 C-180.47043479 215.1875 -179.633129 214.01258094 -176.6875 211.5 C-175.70652344 210.67757812 -174.72554687 209.85515625 -173.71484375 209.0078125 C-173.17843262 208.55438477 -172.64202148 208.10095703 -172.08935547 207.63378906 C-162.62534289 199.64962351 -153.03340649 192.01569874 -142.78271484 185.05737305 C-141.76491943 184.35994995 -141.76491943 184.35994995 -140.7265625 183.6484375 C-140.12666504 183.24415527 -139.52676758 182.83987305 -138.90869141 182.42333984 C-134.81610994 179.12556089 -134.70565649 174.86093323 -134.0859375 170.01171875 C-133.92371201 168.80755058 -133.92371201 168.80755058 -133.75820923 167.57905579 C-133.53105692 165.88075166 -133.30771092 164.18193472 -133.08789062 162.48266602 C-132.75247064 159.89406712 -132.40460445 157.30737794 -132.0546875 154.72070312 C-131.83519623 153.0678066 -131.61642293 151.41481454 -131.3984375 149.76171875 C-131.29534271 148.99276779 -131.19224792 148.22381683 -131.08602905 147.43156433 C-130.55882917 143.31842445 -130.26706935 139.34530184 -130.375 135.1875 C-134.14465246 134.53465009 -137.91590901 133.89154785 -141.6875 133.25 C-142.74001953 133.06759766 -143.79253906 132.88519531 -144.87695312 132.69726562 C-165.82376944 129.15241979 -198.9238024 124.33505368 -215.375 141.1875 Z M65.625 135.1875 C66.27713643 144.72246365 67.20813198 154.20199223 68.375 163.6875 C68.4471875 164.35394531 68.519375 165.02039063 68.59375 165.70703125 C68.80737713 167.6716379 69.05175915 169.63282317 69.296875 171.59375 C69.4319043 172.74166016 69.56693359 173.88957031 69.70605469 175.07226562 C71.34255783 180.62002867 75.87968763 183.53347297 80.35546875 186.89453125 C81.24169922 187.56419922 82.12792969 188.23386719 83.04101562 188.92382812 C84.41290039 189.9515332 84.41290039 189.9515332 85.8125 191 C95.88694888 198.57940899 105.72649746 206.3864865 115.375 214.5 C117.42291667 216.3875 117.42291667 216.3875 119.625 216.1875 C121.41752563 214.12036185 123.0934763 212.0474901 124.75 209.875 C125.24282471 209.235625 125.73564941 208.59625 126.2434082 207.9375 C127.71103041 206.02613369 129.16841757 204.10728485 130.625 202.1875 C131.35847656 201.23488281 132.09195313 200.28226562 132.84765625 199.30078125 C143.43812817 185.21524305 155.88279439 166.60171918 153.625 148.1875 C152.01539127 142.09475287 148.55958131 138.65119395 143.25 135.4375 C120.53444121 124.62056724 89.05461909 130.14629761 65.625 135.1875 Z M-46.125 176.375 C-46.75115204 176.68784943 -47.37730408 177.00069885 -48.02243042 177.32302856 C-59.36637007 183.00703349 -70.34659212 189.18124363 -81.15039062 195.84082031 C-83.12422151 197.03568984 -85.11589292 198.16792935 -87.140625 199.2734375 C-88.14609375 199.84320313 -89.1515625 200.41296875 -90.1875 201 C-90.99832031 201.43957031 -91.80914062 201.87914062 -92.64453125 202.33203125 C-97.8494241 207.9128983 -95.51914963 220.68413333 -95.5078125 228 C-95.50848733 229.53881851 -95.50945885 231.07763693 -95.51071167 232.61645508 C-95.51218021 235.8305768 -95.51006133 239.0446706 -95.50537109 242.25878906 C-95.49967433 246.3606641 -95.50295786 250.46247368 -95.50894356 254.56434631 C-95.51257201 257.7386524 -95.51140011 260.91294319 -95.50881577 264.08724976 C-95.50815281 265.59898893 -95.50895263 267.11072954 -95.51129532 268.62246704 C-96.53322456 281.09771463 -96.53322456 281.09771463 -92.67944336 292.05444336 C-91.94862549 292.45800049 -91.21780762 292.86155762 -90.46484375 293.27734375 C-89.64846436 293.7465625 -88.83208496 294.21578125 -87.9909668 294.69921875 C-86.66512573 295.40498047 -86.66512573 295.40498047 -85.3125 296.125 C-83.94702026 296.89457031 -83.94702026 296.89457031 -82.55395508 297.6796875 C-80.70208145 298.72001857 -78.84357492 299.74863366 -76.97851562 300.76513672 C-74.73215853 301.9923757 -72.51001144 303.24937088 -70.296875 304.53515625 C-62.35514297 309.13137576 -54.24521236 313.41669664 -46.125 317.6875 C-45.12364014 318.21666016 -44.12228027 318.74582031 -43.09057617 319.29101562 C-42.14802979 319.78279297 -41.2054834 320.27457031 -40.234375 320.78125 C-39.39358398 321.22146484 -38.55279297 321.66167969 -37.68652344 322.11523438 C-33.42518747 324.14664339 -33.42518747 324.14664339 -28.91503906 323.32983398 C-27.99948242 322.86907471 -27.08392578 322.40831543 -26.140625 321.93359375 C-25.10301025 321.41555176 -24.06539551 320.89750977 -22.99633789 320.36376953 C-21.88379639 319.78997559 -20.77125488 319.21618164 -19.625 318.625 C-17.90108032 317.74884033 -17.90108032 317.74884033 -16.14233398 316.85498047 C-5.23369329 311.26859527 5.44036471 305.24142846 15.89013672 298.83691406 C17.8084376 297.67997416 19.756125 296.57104133 21.72314453 295.49902344 C22.7232959 294.92958008 23.72344727 294.36013672 24.75390625 293.7734375 C25.66342041 293.27634277 26.57293457 292.77924805 27.51000977 292.26708984 C30.60954268 289.21943645 30.53017347 286.32677762 30.625 282.1875 C30.65048416 281.07756683 30.67596832 279.96763367 30.70222473 278.82406616 C30.75855785 274.67373709 30.76424452 270.52559144 30.7578125 266.375 C30.75848733 264.83618149 30.75945885 263.29736307 30.76071167 261.75854492 C30.76218021 258.5444232 30.76006133 255.3303294 30.75537109 252.11621094 C30.74967433 248.0143359 30.75295786 243.91252632 30.75894356 239.81065369 C30.76257201 236.6363476 30.76140011 233.46205681 30.75881577 230.28775024 C30.75815281 228.77601107 30.75895263 227.26427046 30.76129532 225.75253296 C31.767562 213.36999867 31.767562 213.36999867 28.07226562 202.39990234 C27.39873047 202.02816895 26.72519531 201.65643555 26.03125 201.2734375 C24.87544434 200.60779785 24.87544434 200.60779785 23.69628906 199.92871094 C22.84776367 199.47786133 21.99923828 199.02701172 21.125 198.5625 C20.24295898 198.06524414 19.36091797 197.56798828 18.45214844 197.05566406 C16.53665981 195.97982345 14.61410585 194.91648877 12.68554688 193.86425781 C9.535768 192.13861317 6.41485909 190.36832461 3.296875 188.5859375 C-5.97238954 183.30532539 -15.28090263 178.10712855 -24.8125 173.3125 C-25.46250977 172.98475586 -26.11251953 172.65701172 -26.78222656 172.31933594 C-34.33021124 168.6055117 -39.06662072 172.83605759 -46.125 176.375 Z M-145.9375 241.5625 C-146.94941406 242.37460938 -147.96132812 243.18671875 -149.00390625 244.0234375 C-150.17759766 245.09464844 -150.17759766 245.09464844 -151.375 246.1875 C-151.375 246.8475 -151.375 247.5075 -151.375 248.1875 C-149.61748022 249.79156253 -147.79324776 251.32317377 -145.9375 252.8125 C-144.92816406 253.62976563 -143.91882813 254.44703125 -142.87890625 255.2890625 C-140.76589566 257.2881948 -140.76589566 257.2881948 -139.375 257.1875 C-139.375 250.5875 -139.375 243.9875 -139.375 237.1875 C-141.64660214 237.1875 -144.31691977 240.25030605 -145.9375 241.5625 Z M74.625 237.1875 C74.625 243.7875 74.625 250.3875 74.625 257.1875 C77.265 255.2075 79.905 253.2275 82.625 251.1875 C83.945 250.1975 85.265 249.2075 86.625 248.1875 C86.625 247.5275 86.625 246.8675 86.625 246.1875 C84.86748022 244.58343747 83.04324776 243.05182623 81.1875 241.5625 C79.67349609 240.33660156 79.67349609 240.33660156 78.12890625 239.0859375 C76.01589566 237.0868052 76.01589566 237.0868052 74.625 237.1875 Z M-185.4921875 280.25 C-200.27981826 295.78806413 -219.11120501 319.52262207 -218.64453125 342.0078125 C-217.91867849 347.87775221 -215.47370492 352.69265675 -210.9375 356.5 C-188.89441614 371.36050597 -154.51156473 363.76340263 -130.375 359.1875 C-131.02713643 349.65253635 -131.95813198 340.17300777 -133.125 330.6875 C-133.1971875 330.02105469 -133.269375 329.35460937 -133.34375 328.66796875 C-133.55737713 326.7033621 -133.80175915 324.74217683 -134.046875 322.78125 C-134.1819043 321.63333984 -134.31693359 320.48542969 -134.45605469 319.30273438 C-135.94884969 314.24214346 -139.73511658 311.4904252 -143.87109375 308.4609375 C-144.50499023 307.99220215 -145.13888672 307.5234668 -145.79199219 307.04052734 C-146.45875977 306.55277832 -147.12552734 306.0650293 -147.8125 305.5625 C-149.24440442 304.50123322 -150.67537658 303.43870758 -152.10546875 302.375 C-152.82138184 301.84261719 -153.53729492 301.31023437 -154.27490234 300.76171875 C-163.13128172 294.12303772 -171.71005217 287.15257458 -180.14453125 279.98828125 C-182.92566431 277.53932393 -182.92566431 277.53932393 -185.4921875 280.25 Z M117.625 278.1875 C116.81160156 278.90292969 115.99820313 279.61835938 115.16015625 280.35546875 C104.59339151 289.57301838 93.5846551 298.13612414 82.24609375 306.3828125 C81.55249756 306.8873999 80.85890137 307.3919873 80.14428711 307.91186523 C78.82680097 308.86648915 77.50613071 309.81673846 76.18188477 310.76196289 C71.74427631 313.93683423 71.74427631 313.93683423 70.16015625 318.9621582 C69.92619141 320.70758911 69.92619141 320.70758911 69.6875 322.48828125 C69.42839844 324.4209082 69.42839844 324.4209082 69.1640625 326.39257812 C69.07543945 327.06877197 68.98681641 327.74496582 68.89550781 328.44165039 C68.63095483 330.45468844 68.35892385 332.46660619 68.0859375 334.47851562 C66.99522177 342.70365181 66.16117721 350.90761864 65.625 359.1875 C69.41573089 359.83890456 73.20773657 360.48258257 77 361.125 C78.06089844 361.30740234 79.12179687 361.48980469 80.21484375 361.67773438 C101.85026261 365.32788173 129.59506363 368.58457521 148.625 355.1875 C152.6135129 351.34233746 153.9089285 347.47591968 154.1875 342 C152.88604121 318.28091362 135.09625643 296.02860726 119.625 279.1875 C118.965 278.8575 118.305 278.5275 117.625 278.1875 Z M-38.87890625 374.3828125 C-40.56826294 375.08216919 -40.56826294 375.08216919 -42.29174805 375.7956543 C-43.49484619 376.29621338 -44.69794434 376.79677246 -45.9375 377.3125 C-56.31907532 381.5938245 -66.72516088 385.62753967 -77.375 389.1875 C-72.67811957 410.07883273 -63.58199909 432.93992923 -49.375 449.1875 C-48.735625 450.095 -48.09625 451.0025 -47.4375 451.9375 C-43.60919465 456.11383311 -39.27641997 458.61028322 -33.875 460.25 C-27.17077873 460.13028176 -22.32991592 456.45871435 -17.375 452.1875 C-2.11899946 435.17663484 7.60919224 411.21003093 12.625 389.1875 C11.7184668 388.85016846 10.81193359 388.51283691 9.87792969 388.1652832 C6.45518008 386.89092887 3.03358778 385.6134908 -0.38769531 384.33520508 C-1.85744241 383.78653585 -3.32748579 383.2386595 -4.79785156 382.69165039 C-12.98898525 379.64372172 -21.1213186 376.53585781 -29.14355469 373.05932617 C-33.04606544 371.53461437 -35.11209996 372.81038743 -38.87890625 374.3828125 Z " fill="#00A4B9" transform="translate(288.375,8.8125)"/>
<path d="M0 0 C0 28.38 0 56.76 0 86 C1.65 86.66 3.3 87.32 5 88 C7.29719807 89.32347709 9.557813 90.67082411 11.8125 92.0625 C24.47935971 99.75420219 37.42287331 106.82418366 50.58886719 113.62597656 C58.99862128 117.97087754 58.99862128 117.97087754 62.85546875 120.15625 C79.01858355 129.23288984 98.65623883 138.71760454 117 142 C117.33 141.01 117.66 140.02 118 139 C119.86328125 137.640625 119.86328125 137.640625 122.3125 136.25 C123.21540771 135.72921875 124.11831543 135.2084375 125.04858398 134.671875 C126.02255127 134.12015625 126.99651855 133.5684375 128 133 C135.24571181 128.81141373 142.42259926 124.56636331 149.4375 120 C150.43620117 119.35224609 150.43620117 119.35224609 151.45507812 118.69140625 C154.64950532 116.60086368 157.77017004 114.44702068 160.84765625 112.1875 C164 110 164 110 166 110 C164.35425915 125.06567267 162.5385377 140.05683479 160 155 C160.59063232 155.05406006 161.18126465 155.10812012 161.78979492 155.16381836 C166.37202071 155.60045491 170.93060687 156.1076628 175.48828125 156.75390625 C197.21415467 159.80933923 223.81076717 163.35040376 243 150 C246.63762674 146.51102627 247.24325098 142.78889088 247.5 137.875 C246.61579189 118.15447964 233.51837331 98.8801971 220.88671875 84.3828125 C220.11787354 83.49964355 220.11787354 83.49964355 219.33349609 82.59863281 C218.34093287 81.47383404 217.33518787 80.3604927 216.31494141 79.26074219 C213.0113471 75.56632353 213.0113471 75.56632353 212.95703125 72.85546875 C214.28929512 70.4853364 215.7739864 69.17865141 217.875 67.4375 C224.46558194 61.75000072 230.49589599 55.52769422 236.57373047 49.30053711 C237.77473389 48.0824939 237.77473389 48.0824939 239 46.83984375 C239.721875 46.10113037 240.44375 45.36241699 241.1875 44.60131836 C243 43 243 43 245 43 C246.41706502 44.54888502 247.75809496 46.16761534 249.0625 47.8125 C252.61030507 52.26685687 252.61030507 52.26685687 256.2421875 56.65234375 C276.71415301 80.8762887 294.03623055 111.38395 292 144 C289.49510726 160.963281 283.01668497 174.93291153 269.6328125 186.125 C260.34476781 192.73963123 250.11468247 197.43792954 239 200 C238.36803711 200.14808105 237.73607422 200.29616211 237.08496094 200.44873047 C208.61328031 206.81000784 177.16591369 203.45755094 149 197 C148.73445312 198.29035156 148.46890625 199.58070313 148.1953125 200.91015625 C142.38359863 226.97126547 129.59764 252.21975472 113 273 C112.54109375 273.60070312 112.0821875 274.20140625 111.609375 274.8203125 C102.32701446 286.63985159 87.87462047 296.46828677 73 299 C54.30167412 301.04922874 39.07801288 297.63036304 24 286 C23.22269531 285.40574219 22.44539063 284.81148438 21.64453125 284.19921875 C-4.75011895 262.38275566 -20.34925796 222.50681736 -27.18579102 189.86621094 C-28.43675638 183.92609472 -29.77167135 178.00532513 -31.10717773 172.08374023 C-31.56757082 170.03998991 -32.02499967 167.99558891 -32.48242188 165.95117188 C-32.7810694 164.62495932 -33.07989111 163.29878597 -33.37890625 161.97265625 C-33.6426001 160.79968994 -33.90629395 159.62672363 -34.17797852 158.41821289 C-34.7395868 156.08287649 -35.36226132 153.7616055 -36.03662109 151.45629883 C-36.94383844 148.20148993 -37.54965882 145.06717921 -38.03515625 141.7265625 C-38.20466797 140.5715625 -38.37417969 139.4165625 -38.54882812 138.2265625 C-38.8030957 136.44378906 -38.8030957 136.44378906 -39.0625 134.625 C-39.23587891 133.44421875 -39.40925781 132.2634375 -39.58789062 131.046875 C-39.75611328 129.88929688 -39.92433594 128.73171875 -40.09765625 127.5390625 C-40.34346436 125.85731934 -40.34346436 125.85731934 -40.59423828 124.14160156 C-40.9475686 121.40594898 -41.14398323 118.71204068 -41.30859375 115.9609375 C-41.66394787 112.67580209 -42.00753371 111.99033513 -44.16796875 109.21875 C-47.15465341 106.87883706 -50.17987131 104.63781649 -53.3125 102.5 C-60.8930188 97.20713542 -68.01444099 91.41880943 -75.13427734 85.52783203 C-76.89198619 84.08845203 -78.66810031 82.67762516 -80.45703125 81.27734375 C-81.96330078 80.08818359 -81.96330078 80.08818359 -83.5 78.875 C-84.3765625 78.19179688 -85.253125 77.50859375 -86.15625 76.8046875 C-86.7646875 76.20914063 -87.373125 75.61359375 -88 75 C-88 68.25383633 -78.98690289 61.93323499 -74.4375 57.3125 C-70.98624773 53.89751308 -67.42216146 50.65591532 -63.7265625 47.5078125 C-62.07703058 46.06727105 -60.52920426 44.56673075 -59 43 C-53.59510481 44.52012677 -50.01507372 48.27385218 -46 52 C-46.04096802 51.16190796 -46.04096802 51.16190796 -46.08276367 50.30688477 C-46.65135432 34.52157009 -46.65135432 34.52157009 -43.1171875 29.125 C-40.78913485 27.24547125 -38.43341395 25.63993243 -35.85009766 24.1328125 C-32.9505742 22.35743789 -30.27350815 20.29531735 -27.54833984 18.26611328 C-20.9726114 13.39194363 -14.23958282 8.73906418 -7.4375 4.1875 C-6.48182129 3.54760132 -6.48182129 3.54760132 -5.50683594 2.89477539 C-1.12916344 0 -1.12916344 0 0 0 Z M55.49609375 170.1953125 C53.80673706 170.89466919 53.80673706 170.89466919 52.08325195 171.6081543 C50.88015381 172.10871338 49.67705566 172.60927246 48.4375 173.125 C38.05592468 177.4063245 27.64983912 181.44003967 17 185 C21.69688043 205.89133273 30.79300091 228.75242923 45 245 C45.639375 245.9075 46.27875 246.815 46.9375 247.75 C50.76580535 251.92633311 55.09858003 254.42278322 60.5 256.0625 C67.20422127 255.94278176 72.04508408 252.27121435 77 248 C92.25600054 230.98913484 101.98419224 207.02253093 107 185 C106.0934668 184.66266846 105.18693359 184.32533691 104.25292969 183.9777832 C100.83018008 182.70342887 97.40858778 181.4259908 93.98730469 180.14770508 C92.51755759 179.59903585 91.04751421 179.0511595 89.57714844 178.50415039 C81.38601475 175.45622172 73.2536814 172.34835781 65.23144531 168.87182617 C61.32893456 167.34711437 59.26290004 168.62288743 55.49609375 170.1953125 Z " fill="#00A4B9" transform="translate(194,213)"/>
<path d="M0 0 C4.72402794 0.44404628 8.77628932 1.48027291 13.17578125 3.22265625 C14.32594727 3.67535889 15.47611328 4.12806152 16.66113281 4.59448242 C18.46855957 5.32115112 18.46855957 5.32115112 20.3125 6.0625 C21.56208179 6.55923387 22.81175694 7.05573297 24.06152344 7.55200195 C33.82333743 11.44736632 43.45809947 15.59507502 53 20 C53 20.99 53 21.98 53 23 C52.26700684 23.35602295 51.53401367 23.7120459 50.77880859 24.07885742 C35.32370529 31.61596247 20.25846722 39.4622802 5.57617188 48.43847656 C3.00887141 49.99462268 0.42302678 51.51383718 -2.171875 53.0234375 C-13.62678016 59.714136 -24.39864931 67.03252526 -35 75 C-35.74443359 75.55365234 -36.48886719 76.10730469 -37.25585938 76.67773438 C-45.39414602 82.73397016 -53.27238342 88.8538342 -60.60546875 95.87890625 C-63.24490663 98.21694013 -66.06419959 100.05330818 -69 102 C-70.82869385 103.6264041 -70.82869385 103.6264041 -72.375 105.3125 C-74.78303776 107.79974953 -77.24383321 110.12493475 -79.875 112.375 C-86.63722626 118.23472411 -92.762644 124.40986952 -98.1328125 131.57421875 C-100.26546848 134.34488688 -102.53363959 136.97342877 -104.8125 139.625 C-116.91772083 153.99201614 -130.18762913 172.80881383 -131.4375 192.125 C-130.78182811 197.93237957 -129.44090228 202.67050819 -125.1171875 206.796875 C-104.92502895 221.41628729 -73.53042195 214.90082296 -50.81640625 211.35546875 C-48.20546311 210.92799985 -45.60080249 210.48479871 -43 210 C-41.41954952 213.67386905 -40.40321021 217.24115367 -39.5625 221.1484375 C-39.30726563 222.31890625 -39.05203125 223.489375 -38.7890625 224.6953125 C-38.52867187 225.90960938 -38.26828125 227.12390625 -38 228.375 C-36.14666709 237.29827703 -36.14666709 237.29827703 -33.8125 246.1015625 C-33 249 -33 249 -33 253 C-37.45716995 253.81896775 -41.91592292 254.62898602 -46.375 255.4375 C-48.25251953 255.78264648 -48.25251953 255.78264648 -50.16796875 256.13476562 C-62.69918703 258.39825793 -74.78876678 259.23979323 -87.5 259.25 C-88.25600494 259.25067474 -89.01200989 259.25134949 -89.79092407 259.25204468 C-116.63975993 259.21399351 -140.68762438 254.01756119 -160.93359375 235.203125 C-171.71957955 223.96071664 -175.90463661 208.80227398 -176.375 193.5625 C-175.36863357 159.22024554 -155.50569646 131.10507218 -134.35644531 105.65966797 C-133.23976559 104.2933633 -132.17138408 102.88772925 -131.1171875 101.47265625 C-128.71833593 98.67104546 -126.0764049 96.41046784 -123.27880859 94.01660156 C-118.93117148 90.16921753 -114.89623429 85.99832306 -110.8125 81.875 C-109.49862305 80.55435547 -109.49862305 80.55435547 -108.15820312 79.20703125 C-104.85661204 75.88791845 -101.5569874 72.56737597 -98.27734375 69.2265625 C-88.02810998 59.20587082 -76.48662425 50.5329996 -65 42 C-64.07936768 41.31526611 -64.07936768 41.31526611 -63.14013672 40.61669922 C-54.78419003 34.43795752 -46.14081573 28.82843869 -37.28222656 23.40087891 C-34.77475835 21.86174191 -32.27364865 20.31261531 -29.7734375 18.76171875 C-16.43005108 10.48535025 -16.43005108 10.48535025 -9.80859375 6.4296875 C-9.19781982 6.05537598 -8.5870459 5.68106445 -7.95776367 5.29541016 C-6.37374056 4.32574797 -4.78848446 3.35810077 -3.203125 2.390625 C-1.10772054 1.1812276 -1.10772054 1.1812276 0 0 Z " fill="#42B5C4" transform="translate(202,157)"/>
<path d="M0 0 C0.70615448 -0.00067474 1.41230896 -0.00134949 2.13986206 -0.00204468 C27.34297149 0.03611321 53.13666629 4.71700588 71.70703125 23.234375 C83.4744739 35.75240741 87.84073689 51.77927185 87.6484375 68.60546875 C85.15402138 111.70343618 54.1236774 145.84604335 25.0625 174.6875 C23.90210453 175.84285875 22.74194739 176.99845691 21.58203125 178.15429688 C19.46190826 180.26636628 17.34044313 182.37706569 15.21728516 184.48608398 C13.39299358 186.2999611 11.57379708 188.11897997 9.76025391 189.94360352 C-5.42287386 205.01980785 -24.08176687 219.7628303 -42.75390625 230.20678711 C-46.0071156 232.08326707 -49.11523653 234.18388886 -52.25 236.25 C-59.61599927 241.06895502 -67.11103525 245.63925082 -74.69799805 250.1015625 C-75.49117432 250.57078125 -76.28435059 251.04 -77.1015625 251.5234375 C-77.8637207 251.97299805 -78.62587891 252.42255859 -79.41113281 252.88574219 C-81.47395892 254.19385298 -83.31267297 255.63129576 -85.2109375 257.1640625 C-89.40890168 259.77678147 -90.82130327 259.23982326 -95.5625 258.25 C-97.631967 257.58766501 -99.68030603 256.85596374 -101.703125 256.0625 C-102.84813477 255.61495361 -103.99314453 255.16740723 -105.17285156 254.70629883 C-106.37393555 254.22572021 -107.57501953 253.7451416 -108.8125 253.25 C-109.73476379 252.8848378 -109.73476379 252.8848378 -110.67565918 252.51229858 C-121.52680064 248.21363141 -132.11743456 243.45966934 -142.5625 238.25 C-140.25198803 235.66733301 -137.98229162 234.30701712 -134.86328125 232.82421875 C-133.43834351 232.13465088 -133.43834351 232.13465088 -131.98461914 231.43115234 C-130.95844482 230.93824707 -129.93227051 230.4453418 -128.875 229.9375 C-116.99019846 224.11611564 -105.60384674 217.62847694 -94.24853516 210.84277344 C-91.83918998 209.41407248 -89.41659869 208.0151746 -86.98046875 206.6328125 C-66.03039711 194.70240736 -45.5717301 180.3312417 -28.17578125 163.58984375 C-25.5625 161.25 -25.5625 161.25 -22.67578125 159.34765625 C-18.90235002 156.80520635 -15.72881263 153.87779846 -12.4375 150.75 C-11.7880542 150.13705078 -11.1386084 149.52410156 -10.46948242 148.89257812 C-8.49304773 147.01932691 -6.52572523 145.13708493 -4.5625 143.25 C-3.96937012 142.68023437 -3.37624023 142.11046875 -2.76513672 141.5234375 C2.54472579 136.39436859 7.37538113 131.45710621 11.4375 125.25 C12.77825078 123.54186036 14.16097275 121.8737595 15.5480957 120.203125 C28.21869071 104.90771707 43.3159264 84.45725469 42.7421875 63.70703125 C42.13659698 58.82348719 40.44826673 55.10609237 36.8125 51.75 C17.22631283 38.03966898 -16.08201027 44.08143193 -37.7578125 47.79785156 C-40.36185046 48.26987507 -42.96335889 48.75178865 -45.5625 49.25 C-46.9228215 44.59490035 -48.14911495 39.93894552 -49.25390625 35.21484375 C-49.47916237 34.25222374 -49.47916237 34.25222374 -49.70896912 33.27015686 C-50.02322798 31.92501516 -50.33661887 30.5796704 -50.64916992 29.23413086 C-51.12473318 27.18864766 -51.60418202 25.14410186 -52.08398438 23.09960938 C-52.39085874 21.78390866 -52.69750707 20.4681552 -53.00390625 19.15234375 C-53.41684937 17.38105103 -53.41684937 17.38105103 -53.83813477 15.57397461 C-54.51336886 12.47545346 -55.0715403 9.38243604 -55.5625 6.25 C-51.63489067 5.55036206 -47.70624183 4.85689849 -43.77661133 4.16870117 C-41.79648598 3.82067047 -39.81717653 3.46800775 -37.83789062 3.11523438 C-25.1462017 0.89820517 -12.88373203 0.01112894 0 0 Z " fill="#4CCFE1" transform="translate(398.5625,95.75)"/>
<path d="M0 0 C15.52068057 0 25.82096827 3.60575411 38 13 C39.16595703 13.89138672 39.16595703 13.89138672 40.35546875 14.80078125 C51.77026591 24.23566669 59.94248133 37.14546832 67 50 C67.3412793 50.62068359 67.68255859 51.24136719 68.03417969 51.88085938 C74.13716531 63.15240219 78.64987119 74.96301049 83 87 C83.40089844 88.07765625 83.80179687 89.1553125 84.21484375 90.265625 C89.44704262 104.9746178 92.2236505 120.64896862 95.30053711 135.91699219 C96.08622755 139.78752387 96.8719777 143.57654163 98.015625 147.359375 C99.52773651 152.95178743 100.24533181 158.64550136 101.0625 164.375 C101.23587891 165.55578125 101.40925781 166.7365625 101.58789062 167.953125 C101.75611328 169.11070312 101.92433594 170.26828125 102.09765625 171.4609375 C102.26152832 172.58209961 102.42540039 173.70326172 102.59423828 174.85839844 C102.9475686 177.59405102 103.14398323 180.28795932 103.30859375 183.0390625 C103.66417181 186.18908706 103.98458166 186.97956315 105.9921875 189.640625 C109.97682054 192.76623325 114.01393305 195.79283892 118.125 198.75 C125.28262194 203.96170918 132.23225525 209.28843359 139 215 C140.10867995 215.92401168 141.21809436 216.84714262 142.328125 217.76953125 C145.22258599 220.17512216 148.11243495 222.58613672 151 225 C149.49089988 228.54120058 147.42880686 230.81604365 144.7109375 233.51953125 C143.85113281 234.37740234 142.99132812 235.23527344 142.10546875 236.11914062 C141.20441406 237.00794922 140.30335938 237.89675781 139.375 238.8125 C138.05822266 240.12831055 138.05822266 240.12831055 136.71484375 241.47070312 C131.63782711 246.5137724 126.46137231 251.37506275 121 256 C115.59510481 254.47987323 112.01507372 250.72614782 108 247 C108.01160156 247.56920166 108.02320313 248.13840332 108.03515625 248.72485352 C108.06488732 251.33879872 108.03287897 253.94862212 108 256.5625 C108.01933594 257.45775391 108.03867187 258.35300781 108.05859375 259.27539062 C107.97436328 263.10787684 107.85028652 265.90686993 105.44677734 268.99682617 C103.38581025 270.83254127 101.26488047 272.4239108 99 274 C98.32227539 274.51554443 97.64455078 275.03108887 96.94628906 275.56225586 C94.86489962 277.14280159 92.75263323 278.66986918 90.625 280.1875 C89.47946655 281.00963989 89.47946655 281.00963989 88.31079102 281.84838867 C82.58390376 285.93217757 76.78431261 289.90265742 70.9375 293.8125 C70.15777832 294.33416748 69.37805664 294.85583496 68.57470703 295.39331055 C63.12886913 299 63.12886913 299 62 299 C62.00222061 298.07166351 62.00444122 297.14332703 62.00672913 296.18685913 C62.02696724 287.33459488 62.04209197 278.48233866 62.05181217 269.63005638 C62.05697776 265.08164845 62.06395674 260.53326 62.07543945 255.98486328 C62.32541911 220.73877037 62.32541911 220.73877037 59.625 185.625 C59.49633545 184.54428223 59.3676709 183.46356445 59.23510742 182.35009766 C58.1844572 173.82143971 56.79014115 165.40477616 55 157 C54.31679688 157.07863281 53.63359375 157.15726563 52.9296875 157.23828125 C49.03618186 156.92160946 46.38146119 155.1788283 43.125 153.1875 C36.3054558 149.18220356 29.33276502 145.63829093 22.1875 142.25 C21.24600098 141.80293701 20.30450195 141.35587402 19.33447266 140.89526367 C12.91795113 137.86770257 6.46589081 134.92043388 0 132 C2.7203445 128.55928106 6.47472001 127.4179717 10.44921875 125.93359375 C11.18066605 125.65403336 11.91211334 125.37447296 12.66572571 125.08644104 C14.21343156 124.49688736 15.76264498 123.91127829 17.31323242 123.3293457 C19.6650529 122.4459318 22.0114729 121.54926417 24.35742188 120.65039062 C25.86688434 120.07732583 27.37664114 119.5050356 28.88671875 118.93359375 C29.5797258 118.66896835 30.27273285 118.40434296 30.98674011 118.13169861 C35.60184418 116.40772026 40.20194979 115.12179199 45 114 C34.34615572 83.58875587 34.34615572 83.58875587 18 56 C17.56171875 55.37867188 17.1234375 54.75734375 16.671875 54.1171875 C12.37278079 48.41372251 6.48087878 45.59235151 0 43 C0 28.81 0 14.62 0 0 Z " fill="#00BCD3" transform="translate(256,0)"/>
<path d="M0 0 C1.41706502 1.54888502 2.75809496 3.16761534 4.0625 4.8125 C7.61030507 9.26685687 7.61030507 9.26685687 11.2421875 13.65234375 C31.71415301 37.8762887 49.03623055 68.38395 47 101 C44.49510726 117.963281 38.01668497 131.93291153 24.6328125 143.125 C15.34476781 149.73963123 5.11468247 154.43792954 -6 157 C-6.63196289 157.14808105 -7.26392578 157.29616211 -7.91503906 157.44873047 C-36.38671969 163.81000784 -67.83408631 160.45755094 -96 154 C-94.06320391 145.12131898 -91.96173186 136.28183541 -89.875 127.4375 C-89.49864583 125.84050706 -89.12234331 124.24350196 -88.74609375 122.64648438 C-87.83132488 118.76418225 -86.91585604 114.8820458 -86 111 C-85.29504395 111.11593506 -84.59008789 111.23187012 -83.86376953 111.35131836 C-80.61802698 111.88323735 -77.3715277 112.41039522 -74.125 112.9375 C-73.01640625 113.11990234 -71.9078125 113.30230469 -70.765625 113.49023438 C-48.87834589 117.03082364 -21.30859174 120.43344458 -2 107 C1.63762674 103.51102627 2.24325098 99.78889088 2.5 94.875 C1.61579189 75.15447964 -11.48162669 55.8801971 -24.11328125 41.3828125 C-24.62584473 40.7940332 -25.1384082 40.20525391 -25.66650391 39.59863281 C-26.65906713 38.47383404 -27.66481213 37.3604927 -28.68505859 36.26074219 C-31.9886529 32.56632353 -31.9886529 32.56632353 -32.04296875 29.85546875 C-30.71070488 27.4853364 -29.2260136 26.17865141 -27.125 24.4375 C-20.53441806 18.75000072 -14.50410401 12.52769422 -8.42626953 6.30053711 C-7.62560059 5.4885083 -6.82493164 4.67647949 -6 3.83984375 C-5.278125 3.10113037 -4.55625 2.36241699 -3.8125 1.60131836 C-2 0 -2 0 0 0 Z " fill="#0097A7" transform="translate(439,256)"/>
<path d="M0 0 C-0.21914062 0.92554687 -0.43828125 1.85109375 -0.6640625 2.8046875 C-3.82668483 16.19142169 -6.91434828 29.59534766 -10 43 C-10.69971924 42.88406494 -11.39943848 42.76812988 -12.12036133 42.64868164 C-15.35041795 42.11588605 -18.58143832 41.58916488 -21.8125 41.0625 C-22.91271484 40.88009766 -24.01292969 40.69769531 -25.14648438 40.50976562 C-46.50532004 37.0444678 -73.76467657 33.6370276 -92.9375 45.875 C-96.85591641 49.9121563 -98.19509526 53.50335118 -98.4375 59.0625 C-97.74774391 78.7736067 -84.49215469 98.14989408 -71.88671875 112.6171875 C-71.37415527 113.2059668 -70.8615918 113.79474609 -70.33349609 114.40136719 C-69.34093287 115.52616596 -68.33518787 116.6395073 -67.31494141 117.73925781 C-64.0113471 121.43367647 -64.0113471 121.43367647 -63.95703125 124.14453125 C-65.28929512 126.5146636 -66.7739864 127.82134859 -68.875 129.5625 C-75.46558194 135.24999928 -81.49589599 141.47230578 -87.57373047 147.69946289 C-88.37439941 148.5114917 -89.17506836 149.32352051 -90 150.16015625 C-90.721875 150.89886963 -91.44375 151.63758301 -92.1875 152.39868164 C-94 154 -94 154 -96 154 C-97.41706502 152.45111498 -98.75809496 150.83238466 -100.0625 149.1875 C-103.61030507 144.73314313 -103.61030507 144.73314313 -107.2421875 140.34765625 C-124.44287452 119.99453015 -141.37416316 93.25667638 -143 66 C-143.09667969 64.49566406 -143.09667969 64.49566406 -143.1953125 62.9609375 C-143.84448937 43.78858049 -137.20313302 28.07063226 -124.234375 14.09765625 C-115.0323817 5.27574529 -102.24430613 -0.11652859 -90 -3 C-88.79472656 -3.29777344 -87.58945313 -3.59554687 -86.34765625 -3.90234375 C-58.55041787 -9.99119766 -27.39526902 -6.19027713 0 0 Z " fill="#008391" transform="translate(169,102)"/>
<path d="M0 0 C0.66 0 1.32 0 2 0 C0.36562508 15.83724361 -1.65013131 31.43192606 -5 47 C-5.37946777 48.77431396 -5.37946777 48.77431396 -5.76660156 50.58447266 C-12.18593337 80.35740867 -19.3186921 110.07106839 -34 137 C-34.32468262 137.60779297 -34.64936523 138.21558594 -34.98388672 138.84179688 C-39.62135322 147.49347654 -44.90144687 155.31205561 -51 163 C-51.46148437 163.60457031 -51.92296875 164.20914063 -52.3984375 164.83203125 C-61.89187075 176.90589434 -75.97835343 185.897217 -91 189 C-94.63 189 -98.26 189 -102 189 C-102 174.81 -102 160.62 -102 146 C-98.7 144.35 -95.4 142.7 -92 141 C-89.20802268 138.70817728 -89.20802268 138.70817728 -87 136 C-85.63875 134.6078125 -85.63875 134.6078125 -84.25 133.1875 C-64.91204267 110.22056867 -50.35657551 69.01300403 -48.65234375 39.61328125 C-48.15469423 31.09895037 -48.15469423 31.09895037 -44.734375 27.84375 C-41.95115173 26.10245134 -39.12755942 24.59306278 -36.18554688 23.14013672 C-31.78943731 20.84681325 -27.63594465 18.13237889 -23.4375 15.5 C-22.53314209 14.94014404 -21.62878418 14.38028809 -20.69702148 13.8034668 C-9.78491819 7.62245096 -9.78491819 7.62245096 0 0 Z " fill="#00BBD3" transform="translate(358,323)"/>
<path d="M0 0 C9.01643625 7.03880521 15.1108423 16.14007339 17.25 27.4375 C18.57745953 41.22372037 16.25002545 52.78115963 7.57421875 63.89453125 C-0.86877257 73.13215705 -11.15283274 78.33023854 -23.68408203 78.90625 C-36.67374665 79.10273748 -47.12290409 75.23645862 -56.75 66.4375 C-65.54895862 56.81040409 -69.41523748 46.36124665 -69.21875 33.37158203 C-68.64273854 20.84033274 -63.44465705 10.55627257 -54.20703125 2.11328125 C-38.00161747 -10.53769834 -17.12245062 -11.43845467 0 0 Z " fill="#546D79" transform="translate(281.75,220.5625)"/>
<path d="M0 0 C7.83195015 1.48940932 15.05948045 4.03898306 22.5 6.875 C23.12950562 7.11376862 23.75901123 7.35253723 24.40759277 7.59854126 C36.70007636 12.28086704 48.50635673 17.79281235 60.27880859 23.66015625 C63.48300806 25.23782058 66.71854246 26.736852 69.96484375 28.2253418 C77.09384277 31.49528886 83.95808718 35.08692451 90.73852539 39.03198242 C93.40106433 40.57641484 95.92255515 41.97240225 98.828125 43.0078125 C101.59286151 44.27083961 101.8559121 45.23005546 103 48 C104.90895258 55.78072233 105.70724459 63.86643878 106.625 71.8125 C106.75688721 72.94800293 106.88877441 74.08350586 107.0246582 75.25341797 C107.90518366 83.21400559 108.39332804 90.98776211 108 99 C103.91916078 97.51880651 100.43829968 95.53159934 96.75 93.25 C82.73073006 84.70000267 68.31770464 76.75564092 53.8125 69.0625 C53.2158252 68.74603516 52.61915039 68.42957031 52.00439453 68.10351562 C50.00925318 67.05635097 48.00542879 66.02733796 46 65 C44.9888916 64.4755127 43.9777832 63.95102539 42.93603516 63.41064453 C34.99774372 59.3538415 26.96854517 55.77789153 18.67578125 52.50976562 C16.7337322 51.74358197 14.79642874 50.96621507 12.859375 50.1875 C6.57017628 47.67781213 0.3016301 45.34479115 -6.23339844 43.55175781 C-8 43 -8 43 -9 42 C-9.1152214 32.98165976 -6.17846293 24.03313477 -3.9375 15.375 C-3.55597908 13.87907481 -3.17511457 12.38298206 -2.79492188 10.88671875 C-1.87083669 7.25585043 -0.93790391 3.62732662 0 0 Z " fill="#0097A7" transform="translate(210,114)"/>
<path d="M0 0 C12.4834367 0 21.73619554 3.53308194 31 12 C39.79895862 21.62709591 43.66523748 32.07625335 43.46875 45.06591797 C42.89273854 57.59716726 37.69465705 67.88122743 28.45703125 76.32421875 C19.50533925 83.31248047 11.31977493 86 0 86 C0 57.62 0 29.24 0 0 Z " fill="#5F7C8B" transform="translate(256,213)"/>
<path d="M0 0 C4.25603982 1.53089191 7.98118786 3.69767299 11.8125 6.0625 C24.73043491 13.90666268 37.9390644 21.08766224 51.37109375 28.01489258 C52.31726563 28.50368896 53.2634375 28.99248535 54.23828125 29.49609375 C55.08430908 29.93107178 55.93033691 30.3660498 56.80200195 30.81420898 C59 32 59 32 62 34 C62.36076355 36.02481079 62.36076355 36.02481079 62.34057617 38.54150391 C62.34023628 39.95274033 62.34023628 39.95274033 62.33988953 41.39248657 C62.32440567 42.41023163 62.30892181 43.42797668 62.29296875 44.4765625 C62.28872391 45.51694672 62.28447906 46.55733093 62.28010559 47.62924194 C62.26327482 50.96142147 62.22561422 54.29300241 62.1875 57.625 C62.17245887 59.88019962 62.15876947 62.13540869 62.14648438 64.390625 C62.11335699 69.92728855 62.0631142 75.46360152 62 81 C60.58798921 80.54077223 59.17696937 80.07849701 57.76635742 79.61499023 C56.98048752 79.3578978 56.19461761 79.10080536 55.38493347 78.83592224 C51.5715736 77.49933471 47.95275317 75.80857685 44.3125 74.0625 C43.51376465 73.68279053 42.7150293 73.30308105 41.89208984 72.91186523 C34.21464843 69.20615121 26.74281517 65.13681531 19.2980957 60.98657227 C18.41855225 60.49729248 17.53900879 60.0080127 16.6328125 59.50390625 C15.85824707 59.06892822 15.08368164 58.6339502 14.28564453 58.18579102 C11.97539421 56.92589354 11.97539421 56.92589354 9.28662109 56.00537109 C7 55 7 55 5.78125 52.41015625 C4.86988087 48.43202999 4.11684647 44.4711468 3.5 40.4375 C3.37326904 39.61975098 3.24653809 38.80200195 3.1159668 37.95947266 C2.16822345 31.61517426 1.43349987 25.25908413 0.8125 18.875 C0.72871094 18.02349365 0.64492187 17.1719873 0.55859375 16.29467773 C0.06240253 10.84138656 -0.07161228 5.47558515 0 0 Z " fill="#008391" transform="translate(194,299)"/>
<path d="M0 0 C3.99342973 1.33114324 7.59342448 2.63552787 11.38671875 4.35546875 C12.39895508 4.81002441 13.41119141 5.26458008 14.45410156 5.73291016 C15.52112305 6.2129248 16.58814453 6.69293945 17.6875 7.1875 C25.63104191 10.7224807 33.58694415 14.12730433 41.75 17.125 C42.51658936 17.40754639 43.28317871 17.69009277 44.07299805 17.98120117 C47.69608651 19.28302478 51.22031943 20.29507898 55 21 C54.54464132 29.56613429 53.1597006 37.56666574 51.0625 45.875 C50.79759766 46.96296875 50.53269531 48.0509375 50.25976562 49.171875 C49.02442033 54.18682513 47.75418593 59.13573563 46 64 C38.46955974 62.60699146 31.49685803 60.11574518 24.37036133 57.36914062 C22.4405847 56.62618759 20.5068262 55.89445532 18.57226562 55.1640625 C12.17067355 52.72288432 6.15982502 50.07991251 0 47 C0 31.49 0 15.98 0 0 Z " fill="#0097A7" transform="translate(256,334)"/>
<path d="M0 0 C7.53044026 1.39300854 14.50314197 3.88425482 21.62963867 6.63085938 C23.5594153 7.37381241 25.4931738 8.10554468 27.42773438 8.8359375 C33.82932645 11.27711568 39.84017498 13.92008749 46 17 C46 32.51 46 48.02 46 64 C42.04 62.35 38.08 60.7 34 59 C29.32838721 57.06712778 24.6522175 55.14572385 19.97216797 53.23339844 C18.56973259 52.65936319 17.16804213 52.08350475 15.76708984 51.50585938 C8.51128578 48.51509762 1.31764777 45.58441852 -6.27294922 43.52978516 C-8 43 -8 43 -9 42 C-9.1152214 32.98165976 -6.17846293 24.03313477 -3.9375 15.375 C-3.55597908 13.87907481 -3.17511457 12.38298206 -2.79492188 10.88671875 C-1.87083669 7.25585043 -0.93790391 3.62732662 0 0 Z " fill="#008391" transform="translate(210,114)"/>
<path d="M0 0 C14.18073849 8.30853841 26.87094257 19.00402642 39.30078125 29.6953125 C41.82687039 31.85217587 44.39445064 33.94023967 47 36 C45.49089988 39.54120058 43.42880686 41.81604365 40.7109375 44.51953125 C39.85113281 45.37740234 38.99132812 46.23527344 38.10546875 47.11914062 C36.75388672 48.45235352 36.75388672 48.45235352 35.375 49.8125 C34.49714844 50.68970703 33.61929688 51.56691406 32.71484375 52.47070312 C27.63782711 57.5137724 22.46137231 62.37506275 17 67 C10.73343086 64.7841265 5.98619216 61.34489195 2 56 C0.68840831 51.09150041 0.78133363 46.42919735 0.9375 41.375 C0.94339377 40.0236943 0.94410158 38.6723563 0.93969727 37.32104492 C0.93463524 34.69992944 0.9525005 32.08277156 0.984375 29.46142578 C1.00282475 25.37422915 0.77438324 21.3845762 0.4375 17.3125 C-0.0009795 11.53005153 -0.10847007 5.79712258 0 0 Z " fill="#0097A7" transform="translate(360,189)"/>
<path d="M0 0 C3.83105634 1.34494531 6.6457622 3.01035675 9.75 5.625 C10.91789062 6.57246094 10.91789062 6.57246094 12.109375 7.5390625 C15.88599744 12.45491402 15.21507415 20.40346324 15.53515625 26.48828125 C15.57813339 27.27212692 15.62111053 28.0559726 15.66539001 28.86357117 C15.75496481 30.51142993 15.84312637 32.15936607 15.92993164 33.80737305 C16.06160909 36.29566452 16.19944044 38.78356162 16.33789062 41.27148438 C16.78620382 49.52026159 17.15571833 57.73539406 17 66 C12.78819495 64.39840279 9.31893907 62.32765014 5.6875 59.6875 C5.08574951 59.25381104 4.48399902 58.82012207 3.86401367 58.37329102 C-3.01344924 53.35393418 -9.57650463 47.95375601 -16.13427734 42.52783203 C-17.89198619 41.08845203 -19.66810031 39.67762516 -21.45703125 38.27734375 C-22.46121094 37.48457031 -23.46539062 36.69179688 -24.5 35.875 C-25.3765625 35.19179688 -26.253125 34.50859375 -27.15625 33.8046875 C-27.7646875 33.20914063 -28.373125 32.61359375 -29 32 C-29 25.25383633 -19.98690289 18.93323499 -15.4375 14.3125 C-11.98624773 10.89751308 -8.42216146 7.65591532 -4.7265625 4.5078125 C-3.07703058 3.06727105 -1.52920426 1.56673075 0 0 Z " fill="#008492" transform="translate(135,256)"/>
<path d="M0 0 C6.61967642 0.38517738 11.14927385 3.0191383 16.8125 6.3125 C29.20136126 13.31313561 42.01685639 19.1944534 55 25 C52.44098847 28.04760562 49.67597238 29.13295519 46.00390625 30.55859375 C44.80443359 31.02716797 43.60496094 31.49574219 42.36914062 31.97851562 C41.74241455 32.21868408 41.11568848 32.45885254 40.4699707 32.70629883 C38.59723254 33.42418579 36.72922134 34.15436516 34.86132812 34.88476562 C13.94428369 43 13.94428369 43 9 43 C6.35249359 33.82053107 3.81170944 24.62889924 1.6875 15.3125 C1.51637695 14.58369629 1.34525391 13.85489258 1.16894531 13.10400391 C0.17643936 8.63360028 -0.16203301 4.57893282 0 0 Z " fill="#42B5C4" transform="translate(201,355)"/>
<path d="M0 0 C1.13050868 4.12351006 2.25338592 8.2490625 3.375 12.375 C3.69210937 13.53128906 4.00921875 14.68757812 4.3359375 15.87890625 C9.37179816 34.44864242 9.37179816 34.44864242 9 43 C4.15593628 43.55752431 1.11170083 41.62537035 -2.875 39.1875 C-9.6945442 35.18220356 -16.66723498 31.63829093 -23.8125 28.25 C-24.75399902 27.80293701 -25.69549805 27.35587402 -26.66552734 26.89526367 C-33.08204887 23.86770257 -39.53410919 20.92043388 -46 18 C-43.27265292 14.5357068 -39.47659054 13.41284779 -35.48046875 11.93359375 C-34.74427811 11.65403336 -34.00808746 11.37447296 -33.24958801 11.08644104 C-30.89835415 10.1958436 -28.54301713 9.31669731 -26.1875 8.4375 C-24.61366098 7.84251405 -23.04009004 7.24681846 -21.46679688 6.65039062 C-3.86605073 0 -3.86605073 0 0 0 Z " fill="#4CCFE0" transform="translate(302,114)"/>
<path d="M0 0 C0.66 0.33 1.32 0.66 2 1 C-3.28 6.28 -8.56 11.56 -14 17 C-14 12.08113186 -10.31173311 9.3948461 -7 6 C-4.72300284 3.91201998 -2.39497582 1.9550823 0 0 Z " fill="#00AEC1" transform="translate(219,12)"/>
</svg>
